<svg xmlns="http://www.w3.org/2000/svg" viewBox="0 0 24 24" fill="#FF4500" stroke="none">
  <path d="M19.48 13.03A4 4 0 0 1 16 19h-4a4 4 0 1 1 0-8h1a1 1 0 0 0 1-1V5a1 1 0 1 1 2 0v5a1 1 0 0 0 1 1h1a1 1 0 0 1 1.48 2.03z"/>
  <path d="M12 2a1 1 0 0 1 1 1v2.17a3.001 3.001 0 1 0-2 0V3a1 1 0 0 1 1-1z" opacity="0"/>
  <path d="M13.5 3.13C17.15 4.3 19 7.6 19 11c0 .24-.01.48-.03.71-.52-1.2-1.46-2.22-2.65-2.85C16.88 9.5 17 10.23 17 11c0 2.76-2.24 5-5 5s-5-2.24-5-5c0-1.8.96-3.37 2.4-4.28C9.28 7.37 9.14 8.16 9.14 9c0 1.93 1.57 3.5 3.5 3.5.3 0 .58-.04.85-.12-.66-1.57-2.11-2.73-3.85-2.95C10.74 7.22 12 5.37 12 3.13zM12 1c-3.87 0-7 3.13-7 7 0 3.87 3.13 7 7 7s7-3.13 7-7c0-3.87-3.13-7-7-7z" fill="none"/>
  <path d="M12 23c-4.97 0-9-4.03-9-9 0-4.97 4.03-9 9-9 1.15 0 2.25.22 3.26.61-1.47.78-2.65 2.1-3.1 3.73-.28-.08-.57-.13-.86-.13-1.66 0-3 1.34-3 3s1.34 3 3 3 .3-.04.58-.12c-.66-1.57-2.11-2.73-3.85-2.95C8.74 10.22 10 8.37 10 6.13 6.35 7.3 4.5 10.6 4.5 14c0 .24-.01.48-.03.71.52-1.2 1.46-2.22 2.65-2.85-.56.64-.68 1.37-.68 2.14 0 2.76 2.24 5 5 5s5-2.24 5-5c0-1.8-.96-3.37-2.4-4.28.12-.65.26-1.44.26-2.28 0-1.93-1.57-3.5-3.5-3.5-.3 0-.58.04-.85.12.66 1.57 2.11 2.73 3.85 2.95 1.1-.9 2.36-2.75 2.36-4.99z" opacity="0"/>
  <path d="M12.01 22c-4.43 0-8-3.58-8-8 0-4.42 3.58-8 8-8 1.45 0 2.8.4 3.96 1.1l1.45-1.45C15.93 4.53 14.05 4 12.01 4 7.03 4 3 8.03 3 13s4.03 9 9.01 9c4.98 0 9-4.03 9-9 0-1.63-.44-3.15-1.2-4.46l-1.5 1.5C18.77 10.96 19.01 11.96 19.01 13c0 4.42-3.58 8-7 8z" opacity="0"/>
  <path d="M15.5 11.5c0 2-2.5 3.5-2.5 5 0 1.5 1.5 2.5 2.5 2.5s2.5-1 2.5-2.5c0-1.5-2.5-3-2.5-5z"/>
  <path d="M11 7c-3 0-5 3-5 6s2 4 4 4 2-2 2-3.5S13 10 11 7z"/>
</svg>